<svg width="36" height="40" viewBox="0 0 36 40" fill="none" xmlns="http://www.w3.org/2000/svg">
<path d="M0 4C0 1.79086 1.79086 0 4 0H32C34.2091 0 36 1.79086 36 4V36C36 38.2091 34.2091 40 32 40H4C1.79086 40 0 38.2091 0 36V4Z" fill="#2563EB"/>
<path d="M23.8333 12.5H12.1667C11.2462 12.5 10.5 13.2462 10.5 14.1667V25.8333C10.5 26.7538 11.2462 27.5 12.1667 27.5H23.8333C24.7538 27.5 25.5 26.7538 25.5 25.8333V14.1667C25.5 13.2462 24.7538 12.5 23.8333 12.5Z" stroke="white" stroke-width="1.66667" stroke-linecap="round" stroke-linejoin="round"/>
<path d="M10.5 17.5H25.5" stroke="white" stroke-width="1.66667" stroke-linecap="round" stroke-linejoin="round"/>
<path d="M10.5 22.5H25.5" stroke="white" stroke-width="1.66667" stroke-linecap="round" stroke-linejoin="round"/>
<path d="M15.5 12.5V27.5" stroke="white" stroke-width="1.66667" stroke-linecap="round" stroke-linejoin="round"/>
<path d="M20.5 12.5V27.5" stroke="white" stroke-width="1.66667" stroke-linecap="round" stroke-linejoin="round"/>
</svg>
