<svg width="1253" height="372" viewBox="0 0 1253 372" fill="none" xmlns="http://www.w3.org/2000/svg">
<mask id="path-1-inside-1_97_544" fill="white">
<path d="M1030 332C1030 326.477 1034.48 322 1040 322H1243C1248.52 322 1253 326.477 1253 332V362C1253 367.523 1248.52 372 1243 372H1040C1034.48 372 1030 367.523 1030 362V332Z"/>
</mask>
<path d="M1030 332C1030 326.477 1034.48 322 1040 322H1243C1248.52 322 1253 326.477 1253 332V362C1253 367.523 1248.52 372 1243 372H1040C1034.48 372 1030 367.523 1030 362V332Z" fill="white"/>
<path d="M1040 322V323H1243V322V321H1040V322ZM1253 332H1252V362H1253H1254V332H1253ZM1243 372V371H1040V372V373H1243V372ZM1030 362H1031V332H1030H1029V362H1030ZM1040 372V371C1035.03 371 1031 366.971 1031 362H1030H1029C1029 368.075 1033.92 373 1040 373V372ZM1253 362H1252C1252 366.971 1247.97 371 1243 371V372V373C1249.08 373 1254 368.075 1254 362H1253ZM1243 322V323C1247.97 323 1252 327.029 1252 332H1253H1254C1254 325.925 1249.08 321 1243 321V322ZM1040 322V321C1033.92 321 1029 325.925 1029 332H1030H1031C1031 327.029 1035.03 323 1040 323V322Z" fill="#CBD5E1" mask="url(#path-1-inside-1_97_544)"/>
<path d="M1054.33 353.667C1054.33 353.822 1054.38 353.973 1054.46 354.105C1054.54 354.237 1054.66 354.343 1054.79 354.413L1056.46 355.246C1056.59 355.309 1056.73 355.339 1056.87 355.333C1057.01 355.326 1057.15 355.284 1057.27 355.209C1057.39 355.134 1057.49 355.03 1057.56 354.906C1057.63 354.782 1057.67 354.642 1057.67 354.5V348.667C1057.67 348.254 1057.82 347.855 1058.1 347.549L1064.12 340.892C1064.22 340.772 1064.3 340.624 1064.32 340.465C1064.35 340.306 1064.33 340.143 1064.26 339.996C1064.19 339.849 1064.09 339.723 1063.95 339.635C1063.82 339.547 1063.66 339.5 1063.5 339.5H1048.5C1048.34 339.5 1048.18 339.547 1048.05 339.635C1047.91 339.723 1047.8 339.848 1047.74 339.995C1047.67 340.142 1047.65 340.305 1047.68 340.464C1047.7 340.624 1047.77 340.772 1047.88 340.892L1053.9 347.549C1054.18 347.855 1054.33 348.254 1054.33 348.667V353.667Z" stroke="#94A3B8" stroke-width="1.66667" stroke-linecap="round" stroke-linejoin="round"/>
</svg>
