<svg width="56" height="56" viewBox="0 0 56 56" fill="none" xmlns="http://www.w3.org/2000/svg">
<path d="M0 10C0 4.47715 4.47715 0 10 0H46C51.5229 0 56 4.47715 56 10V46C56 51.5229 51.5228 56 46 56H10C4.47715 56 0 51.5228 0 46V10Z" fill="#FEF3C7"/>
<path d="M18.6667 30.3334C18.4459 30.3341 18.2294 30.2722 18.0425 30.1548C17.8555 30.0375 17.7056 29.8694 17.6103 29.6703C17.515 29.4711 17.4782 29.249 17.5041 29.0298C17.53 28.8105 17.6176 28.6031 17.7567 28.4317L29.3067 16.5317C29.3933 16.4317 29.5114 16.3641 29.6415 16.34C29.7716 16.316 29.906 16.3369 30.0227 16.3993C30.1394 16.4617 30.2314 16.5619 30.2836 16.6835C30.3358 16.8051 30.3451 16.9408 30.31 17.0684L28.07 24.0917C28.004 24.2685 27.9818 24.4586 28.0054 24.6459C28.029 24.8331 28.0976 25.0118 28.2054 25.1667C28.3133 25.3216 28.4571 25.448 28.6245 25.535C28.7919 25.6221 28.978 25.6673 29.1667 25.6667H37.3333C37.5541 25.6659 37.7706 25.7278 37.9576 25.8452C38.1446 25.9626 38.2944 26.1306 38.3897 26.3298C38.485 26.5289 38.5218 26.751 38.4959 26.9703C38.47 27.1895 38.3824 27.3969 38.2433 27.5684L26.6933 39.4684C26.6067 39.5684 26.4886 39.6359 26.3585 39.66C26.2284 39.6841 26.094 39.6632 25.9773 39.6008C25.8607 39.5384 25.7687 39.4381 25.7165 39.3166C25.6642 39.195 25.6549 39.0593 25.69 38.9317L27.93 31.9084C27.9961 31.7316 28.0182 31.5414 27.9947 31.3542C27.9711 31.167 27.9024 30.9882 27.7946 30.8334C27.6867 30.6785 27.5429 30.5521 27.3755 30.465C27.2081 30.3779 27.0221 30.3327 26.8333 30.3334H18.6667Z" stroke="#F59E0B" stroke-width="2.33333" stroke-linecap="round" stroke-linejoin="round"/>
</svg>
