<svg width="56" height="56" viewBox="0 0 56 56" fill="none" xmlns="http://www.w3.org/2000/svg">
<path d="M0 10C0 4.47715 4.47715 0 10 0H46C51.5229 0 56 4.47715 56 10V46C56 51.5229 51.5228 56 46 56H10C4.47715 56 0 51.5228 0 46V10Z" fill="#DBEAFE"/>
<path d="M26.8333 36.1667C31.988 36.1667 36.1667 31.988 36.1667 26.8333C36.1667 21.6787 31.988 17.5 26.8333 17.5C21.6787 17.5 17.5 21.6787 17.5 26.8333C17.5 31.988 21.6787 36.1667 26.8333 36.1667Z" stroke="#2563EB" stroke-width="2.33333" stroke-linecap="round" stroke-linejoin="round"/>
<path d="M38.5 38.5001L33.4833 33.4834" stroke="#2563EB" stroke-width="2.33333" stroke-linecap="round" stroke-linejoin="round"/>
</svg>
