<svg width="48" height="48" viewBox="0 0 48 48" fill="none" xmlns="http://www.w3.org/2000/svg">
<path d="M0 10C0 4.47715 4.47715 0 10 0H38C43.5229 0 48 4.47715 48 10V38C48 43.5229 43.5228 48 38 48H10C4.47715 48 0 43.5228 0 38V10Z" fill="#DBEAFE"/>
<path d="M15 20L22.89 25.26C23.2187 25.4793 23.6049 25.5963 24 25.5963C24.3951 25.5963 24.7813 25.4793 25.11 25.26L33 20M17 31H31C31.5304 31 32.0391 30.7893 32.4142 30.4142C32.7893 30.0391 33 29.5304 33 29V19C33 18.4696 32.7893 17.9609 32.4142 17.5858C32.0391 17.2107 31.5304 17 31 17H17C16.4696 17 15.9609 17.2107 15.5858 17.5858C15.2107 17.9609 15 18.4696 15 19V29C15 29.5304 15.2107 30.0391 15.5858 30.4142C15.9609 30.7893 16.4696 31 17 31Z" stroke="#2563EB" stroke-width="2" stroke-linecap="round" stroke-linejoin="round"/>
</svg>
