<svg width="32" height="32" viewBox="0 0 32 32" fill="none" xmlns="http://www.w3.org/2000/svg">
<path d="M20.636 17.1868L22.656 28.5548C22.6786 28.6886 22.6598 28.8262 22.6022 28.9491C22.5445 29.072 22.4507 29.1744 22.3332 29.2425C22.2158 29.3106 22.0804 29.3413 21.9451 29.3304C21.8098 29.3195 21.681 29.2675 21.576 29.1814L16.8027 25.5988C16.5722 25.4266 16.2923 25.3336 16.0047 25.3336C15.717 25.3336 15.4371 25.4266 15.2067 25.5988L10.4253 29.1801C10.3204 29.266 10.1918 29.3179 10.0567 29.3288C9.92151 29.3398 9.78623 29.3092 9.66889 29.2413C9.55154 29.1733 9.45771 29.0712 9.3999 28.9485C9.34209 28.8259 9.32305 28.6885 9.34534 28.5548L11.364 17.1868" stroke="#FBBF24" stroke-width="2.66667" stroke-linecap="round" stroke-linejoin="round"/>
<path d="M16 18.6667C20.4183 18.6667 24 15.085 24 10.6667C24 6.24847 20.4183 2.66675 16 2.66675C11.5817 2.66675 8 6.24847 8 10.6667C8 15.085 11.5817 18.6667 16 18.6667Z" stroke="#FBBF24" stroke-width="2.66667" stroke-linecap="round" stroke-linejoin="round"/>
</svg>
